<svg version="1.1" id="fi_616463" xmlns="http://www.w3.org/2000/svg" x="0px"
     y="0px" viewBox="0 0 512 512" style="enable-background:new 0 0 512 512;" xml:space="preserve">
<circle style="fill:#5D5360;" cx="256" cy="256" r="256"/>
    <circle style="fill:#6F6571;" cx="152.77" cy="144.52" r="37.16"/>
    <path style="fill:#4B3F4E;" d="M339.957,428.043c-141.385,0-256-114.615-256-256c0-49.18,13.896-95.102,37.935-134.107
	C48.766,83.005,0,163.795,0,256c0,141.385,114.615,256,256,256c92.205,0,172.996-48.766,218.065-121.893
	C435.059,414.147,389.138,428.043,339.957,428.043z"/>
    <path style="fill:#FFDC64;" d="M256,512c-68.412,0-123.871-114.615-123.871-256S187.588,0,256,0C114.615,0,0,114.615,0,256
	S114.615,512,256,512z"/>
    <path style="fill:#FFC850;" d="M137.157,328.193c-33.329-43.221-53.2-97.35-53.2-156.15c0-49.18,13.895-95.102,37.935-134.107
	h-0.001C48.765,83.005,0,163.796,0,256c0,141.385,114.615,256,256,256C199.723,512,152.242,434.413,137.157,328.193z"/>
    <g>
	<circle style="fill:#6F6571;" cx="202.32" cy="384" r="20.645"/>
        <circle style="fill:#6F6571;" cx="305.55" cy="140.39" r="16.516"/>
        <circle style="fill:#6F6571;" cx="371.61" cy="338.58" r="33.03"/>
        <path style="fill:#6F6571;" d="M222.968,256h-8.258v-8.258c0-4.565-3.694-8.258-8.258-8.258s-8.258,3.694-8.258,8.258V256h-8.258
		c-4.565,0-8.258,3.694-8.258,8.258s3.694,8.258,8.258,8.258h8.258v8.258c0,4.565,3.694,8.258,8.258,8.258s8.258-3.694,8.258-8.258
		v-8.258h8.258c4.565,0,8.258-3.694,8.258-8.258S227.532,256,222.968,256z"/>
        <path style="fill:#6F6571;" d="M432.839,222.968l2.419-2.419c3.226-3.226,3.226-8.452,0-11.677c-3.226-3.226-8.452-3.226-11.677,0
		l-2.419,2.419l-2.419-2.419c-3.226-3.226-8.452-3.226-11.677,0c-3.226,3.226-3.226,8.452,0,11.677l2.419,2.419l-2.419,2.419
		c-3.226,3.226-3.226,8.452,0,11.677c1.613,1.613,3.726,2.419,5.839,2.419s4.226-0.806,5.839-2.419l2.419-2.419l2.419,2.419
		c1.613,1.613,3.726,2.419,5.839,2.419c2.113,0,4.226-0.806,5.839-2.419c3.226-3.226,3.226-8.452,0-11.677L432.839,222.968z"/>
</g>
    <circle style="fill:#FFDC64;" cx="90.84" cy="280.77" r="16.516"/>
    <path style="fill:#FFF082;" d="M137.915,178.543c3.935-25.647,9.788-49.514,17.185-70.954c-0.784-0.049-1.53-0.234-2.327-0.234
	c-20.524,0-37.161,16.638-37.161,37.161C115.613,159.749,124.798,172.805,137.915,178.543z"/>
</svg>